<mxfile host="app.diagrams.net" modified="2023-03-04T08:22:29.438Z" agent="5.0 (Macintosh; Intel Mac OS X 10_15_7) AppleWebKit/537.36 (KHTML, like Gecko) Chrome/110.0.0.0 Safari/537.36" etag="vVPfPI6fK-NzRDw4NOGh" version="21.0.2" type="github">
  <diagram id="C5RBs43oDa-KdzZeNtuy" name="Page-1">
    <mxGraphModel dx="886" dy="788" grid="1" gridSize="10" guides="1" tooltips="1" connect="1" arrows="1" fold="1" page="1" pageScale="1" pageWidth="827" pageHeight="3069" math="0" shadow="0">
      <root>
        <mxCell id="WIyWlLk6GJQsqaUBKTNV-0" />
        <mxCell id="WIyWlLk6GJQsqaUBKTNV-1" parent="WIyWlLk6GJQsqaUBKTNV-0" />
        <mxCell id="fRf1mxBCHzGcTCpwJjoB-55" value="" style="rounded=0;whiteSpace=wrap;html=1;fillColor=#f5f5f5;fontColor=#333333;strokeColor=#666666;" vertex="1" parent="WIyWlLk6GJQsqaUBKTNV-1">
          <mxGeometry x="425" y="1415" width="185" height="65" as="geometry" />
        </mxCell>
        <mxCell id="F0V_eO-DA9mpBgUyq2MN-25" style="edgeStyle=orthogonalEdgeStyle;rounded=0;orthogonalLoop=1;jettySize=auto;html=1;entryX=0.24;entryY=-0.019;entryDx=0;entryDy=0;entryPerimeter=0;" parent="WIyWlLk6GJQsqaUBKTNV-1" source="F0V_eO-DA9mpBgUyq2MN-0" target="F0V_eO-DA9mpBgUyq2MN-5" edge="1">
          <mxGeometry relative="1" as="geometry" />
        </mxCell>
        <mxCell id="F0V_eO-DA9mpBgUyq2MN-0" value="" style="sketch=0;pointerEvents=1;shadow=0;dashed=0;html=1;strokeColor=none;fillColor=#DF8C42;labelPosition=center;verticalLabelPosition=bottom;verticalAlign=top;align=center;outlineConnect=0;shape=mxgraph.veeam2.aws_s3;" parent="WIyWlLk6GJQsqaUBKTNV-1" vertex="1">
          <mxGeometry x="250" y="226" width="40" height="44" as="geometry" />
        </mxCell>
        <mxCell id="F0V_eO-DA9mpBgUyq2MN-2" value="" style="verticalLabelPosition=bottom;verticalAlign=top;html=1;shadow=0;dashed=0;strokeWidth=2;shape=mxgraph.android.phone2;strokeColor=#171717;" parent="WIyWlLk6GJQsqaUBKTNV-1" vertex="1">
          <mxGeometry x="149" y="186" width="30" height="60" as="geometry" />
        </mxCell>
        <mxCell id="F0V_eO-DA9mpBgUyq2MN-28" style="edgeStyle=orthogonalEdgeStyle;rounded=0;orthogonalLoop=1;jettySize=auto;html=1;" parent="WIyWlLk6GJQsqaUBKTNV-1" source="F0V_eO-DA9mpBgUyq2MN-3" edge="1">
          <mxGeometry relative="1" as="geometry">
            <mxPoint x="240" y="260" as="targetPoint" />
          </mxGeometry>
        </mxCell>
        <mxCell id="F0V_eO-DA9mpBgUyq2MN-3" value="" style="shape=image;html=1;verticalAlign=top;verticalLabelPosition=bottom;labelBackgroundColor=#ffffff;imageAspect=0;aspect=fixed;image=https://cdn1.iconfinder.com/data/icons/seo-and-web-development-6/32/development_website_bookmark_favorite_site-128.png" parent="WIyWlLk6GJQsqaUBKTNV-1" vertex="1">
          <mxGeometry x="130" y="290" width="60" height="60" as="geometry" />
        </mxCell>
        <mxCell id="F0V_eO-DA9mpBgUyq2MN-12" style="edgeStyle=orthogonalEdgeStyle;rounded=0;orthogonalLoop=1;jettySize=auto;html=1;" parent="WIyWlLk6GJQsqaUBKTNV-1" source="F0V_eO-DA9mpBgUyq2MN-4" target="F0V_eO-DA9mpBgUyq2MN-11" edge="1">
          <mxGeometry relative="1" as="geometry" />
        </mxCell>
        <mxCell id="F0V_eO-DA9mpBgUyq2MN-4" value="Amazon Lex" style="sketch=0;outlineConnect=0;fontColor=#232F3E;gradientColor=none;strokeColor=#ffffff;fillColor=#232F3E;dashed=0;verticalLabelPosition=middle;verticalAlign=bottom;align=center;html=1;whiteSpace=wrap;fontSize=10;fontStyle=1;spacing=3;shape=mxgraph.aws4.productIcon;prIcon=mxgraph.aws4.lex;" parent="WIyWlLk6GJQsqaUBKTNV-1" vertex="1">
          <mxGeometry x="250" y="505" width="50" height="80" as="geometry" />
        </mxCell>
        <mxCell id="F0V_eO-DA9mpBgUyq2MN-9" style="edgeStyle=orthogonalEdgeStyle;rounded=0;orthogonalLoop=1;jettySize=auto;html=1;exitX=0.5;exitY=1;exitDx=0;exitDy=0;exitPerimeter=0;entryX=0.5;entryY=0;entryDx=0;entryDy=0;entryPerimeter=0;" parent="WIyWlLk6GJQsqaUBKTNV-1" source="F0V_eO-DA9mpBgUyq2MN-5" target="F0V_eO-DA9mpBgUyq2MN-7" edge="1">
          <mxGeometry relative="1" as="geometry" />
        </mxCell>
        <mxCell id="F0V_eO-DA9mpBgUyq2MN-5" value="" style="outlineConnect=0;dashed=0;verticalLabelPosition=bottom;verticalAlign=top;align=center;html=1;shape=mxgraph.aws3.api_gateway;fillColor=#D9A741;gradientColor=none;" parent="WIyWlLk6GJQsqaUBKTNV-1" vertex="1">
          <mxGeometry x="250" y="338" width="50" height="53" as="geometry" />
        </mxCell>
        <mxCell id="F0V_eO-DA9mpBgUyq2MN-10" style="edgeStyle=orthogonalEdgeStyle;rounded=0;orthogonalLoop=1;jettySize=auto;html=1;exitX=0.5;exitY=1;exitDx=0;exitDy=0;exitPerimeter=0;" parent="WIyWlLk6GJQsqaUBKTNV-1" source="F0V_eO-DA9mpBgUyq2MN-7" target="F0V_eO-DA9mpBgUyq2MN-4" edge="1">
          <mxGeometry relative="1" as="geometry" />
        </mxCell>
        <mxCell id="F0V_eO-DA9mpBgUyq2MN-7" value="" style="outlineConnect=0;dashed=0;verticalLabelPosition=bottom;verticalAlign=top;align=center;html=1;shape=mxgraph.aws3.lambda_function;fillColor=#F58534;gradientColor=none;" parent="WIyWlLk6GJQsqaUBKTNV-1" vertex="1">
          <mxGeometry x="255" y="430" width="40" height="40" as="geometry" />
        </mxCell>
        <mxCell id="F0V_eO-DA9mpBgUyq2MN-14" style="edgeStyle=orthogonalEdgeStyle;rounded=0;orthogonalLoop=1;jettySize=auto;html=1;entryX=0;entryY=0.5;entryDx=0;entryDy=0;entryPerimeter=0;" parent="WIyWlLk6GJQsqaUBKTNV-1" source="F0V_eO-DA9mpBgUyq2MN-11" target="F0V_eO-DA9mpBgUyq2MN-13" edge="1">
          <mxGeometry relative="1" as="geometry" />
        </mxCell>
        <mxCell id="F0V_eO-DA9mpBgUyq2MN-11" value="" style="outlineConnect=0;dashed=0;verticalLabelPosition=bottom;verticalAlign=top;align=center;html=1;shape=mxgraph.aws3.lambda_function;fillColor=#F58534;gradientColor=none;" parent="WIyWlLk6GJQsqaUBKTNV-1" vertex="1">
          <mxGeometry x="360" y="524" width="40" height="42" as="geometry" />
        </mxCell>
        <mxCell id="F0V_eO-DA9mpBgUyq2MN-16" style="edgeStyle=orthogonalEdgeStyle;rounded=0;orthogonalLoop=1;jettySize=auto;html=1;entryX=0;entryY=0.5;entryDx=0;entryDy=0;entryPerimeter=0;" parent="WIyWlLk6GJQsqaUBKTNV-1" source="F0V_eO-DA9mpBgUyq2MN-13" target="F0V_eO-DA9mpBgUyq2MN-15" edge="1">
          <mxGeometry relative="1" as="geometry" />
        </mxCell>
        <mxCell id="F0V_eO-DA9mpBgUyq2MN-13" value="" style="outlineConnect=0;dashed=0;verticalLabelPosition=bottom;verticalAlign=top;align=center;html=1;shape=mxgraph.aws3.sqs;fillColor=#D9A741;gradientColor=none;" parent="WIyWlLk6GJQsqaUBKTNV-1" vertex="1">
          <mxGeometry x="450" y="518.5" width="50" height="53" as="geometry" />
        </mxCell>
        <mxCell id="F0V_eO-DA9mpBgUyq2MN-18" style="edgeStyle=orthogonalEdgeStyle;rounded=0;orthogonalLoop=1;jettySize=auto;html=1;entryX=1;entryY=0.21;entryDx=0;entryDy=0;entryPerimeter=0;" parent="WIyWlLk6GJQsqaUBKTNV-1" source="F0V_eO-DA9mpBgUyq2MN-15" target="F0V_eO-DA9mpBgUyq2MN-17" edge="1">
          <mxGeometry relative="1" as="geometry" />
        </mxCell>
        <mxCell id="F0V_eO-DA9mpBgUyq2MN-21" style="edgeStyle=orthogonalEdgeStyle;rounded=0;orthogonalLoop=1;jettySize=auto;html=1;" parent="WIyWlLk6GJQsqaUBKTNV-1" source="F0V_eO-DA9mpBgUyq2MN-15" target="F0V_eO-DA9mpBgUyq2MN-20" edge="1">
          <mxGeometry relative="1" as="geometry" />
        </mxCell>
        <mxCell id="F0V_eO-DA9mpBgUyq2MN-23" style="edgeStyle=orthogonalEdgeStyle;rounded=0;orthogonalLoop=1;jettySize=auto;html=1;exitX=0.5;exitY=0;exitDx=0;exitDy=0;exitPerimeter=0;" parent="WIyWlLk6GJQsqaUBKTNV-1" source="F0V_eO-DA9mpBgUyq2MN-15" target="F0V_eO-DA9mpBgUyq2MN-22" edge="1">
          <mxGeometry relative="1" as="geometry" />
        </mxCell>
        <mxCell id="F0V_eO-DA9mpBgUyq2MN-15" value="" style="outlineConnect=0;dashed=0;verticalLabelPosition=bottom;verticalAlign=top;align=center;html=1;shape=mxgraph.aws3.lambda_function;fillColor=#F58534;gradientColor=none;" parent="WIyWlLk6GJQsqaUBKTNV-1" vertex="1">
          <mxGeometry x="550" y="522" width="40" height="48" as="geometry" />
        </mxCell>
        <mxCell id="F0V_eO-DA9mpBgUyq2MN-17" value="" style="outlineConnect=0;dashed=0;verticalLabelPosition=bottom;verticalAlign=top;align=center;html=1;shape=mxgraph.aws3.elasticsearch_service;fillColor=#F58534;gradientColor=none;" parent="WIyWlLk6GJQsqaUBKTNV-1" vertex="1">
          <mxGeometry x="480" y="630" width="50" height="51" as="geometry" />
        </mxCell>
        <mxCell id="F0V_eO-DA9mpBgUyq2MN-20" value="Amazon DynamoDB" style="sketch=0;outlineConnect=0;fontColor=#232F3E;gradientColor=none;strokeColor=#ffffff;fillColor=#232F3E;dashed=0;verticalLabelPosition=middle;verticalAlign=bottom;align=center;html=1;whiteSpace=wrap;fontSize=10;fontStyle=1;spacing=3;shape=mxgraph.aws4.productIcon;prIcon=mxgraph.aws4.dynamodb;" parent="WIyWlLk6GJQsqaUBKTNV-1" vertex="1">
          <mxGeometry x="600" y="640" width="60" height="90" as="geometry" />
        </mxCell>
        <mxCell id="F0V_eO-DA9mpBgUyq2MN-27" style="edgeStyle=orthogonalEdgeStyle;rounded=0;orthogonalLoop=1;jettySize=auto;html=1;entryX=0.64;entryY=1.108;entryDx=0;entryDy=0;entryPerimeter=0;" parent="WIyWlLk6GJQsqaUBKTNV-1" source="F0V_eO-DA9mpBgUyq2MN-22" target="F0V_eO-DA9mpBgUyq2MN-24" edge="1">
          <mxGeometry relative="1" as="geometry" />
        </mxCell>
        <mxCell id="F0V_eO-DA9mpBgUyq2MN-22" value="" style="outlineConnect=0;dashed=0;verticalLabelPosition=bottom;verticalAlign=top;align=center;html=1;shape=mxgraph.aws3.sns;fillColor=#D9A741;gradientColor=none;" parent="WIyWlLk6GJQsqaUBKTNV-1" vertex="1">
          <mxGeometry x="545" y="400" width="50" height="56.5" as="geometry" />
        </mxCell>
        <mxCell id="F0V_eO-DA9mpBgUyq2MN-26" style="edgeStyle=orthogonalEdgeStyle;rounded=0;orthogonalLoop=1;jettySize=auto;html=1;exitX=0.96;exitY=0.65;exitDx=0;exitDy=0;exitPerimeter=0;" parent="WIyWlLk6GJQsqaUBKTNV-1" source="F0V_eO-DA9mpBgUyq2MN-24" edge="1">
          <mxGeometry relative="1" as="geometry">
            <mxPoint x="290" y="248" as="targetPoint" />
          </mxGeometry>
        </mxCell>
        <mxCell id="F0V_eO-DA9mpBgUyq2MN-24" value="" style="sketch=0;pointerEvents=1;shadow=0;dashed=0;html=1;strokeColor=none;labelPosition=center;verticalLabelPosition=bottom;verticalAlign=top;align=center;fillColor=#505050;shape=mxgraph.mscae.intune.user_group" parent="WIyWlLk6GJQsqaUBKTNV-1" vertex="1">
          <mxGeometry x="410" y="226" width="50" height="37" as="geometry" />
        </mxCell>
        <mxCell id="F0V_eO-DA9mpBgUyq2MN-29" style="edgeStyle=orthogonalEdgeStyle;rounded=0;orthogonalLoop=1;jettySize=auto;html=1;" parent="WIyWlLk6GJQsqaUBKTNV-1" target="F0V_eO-DA9mpBgUyq2MN-0" edge="1">
          <mxGeometry relative="1" as="geometry">
            <mxPoint x="230" y="248" as="targetPoint" />
            <mxPoint x="180" y="208" as="sourcePoint" />
            <Array as="points">
              <mxPoint x="230" y="208" />
              <mxPoint x="230" y="248" />
            </Array>
          </mxGeometry>
        </mxCell>
        <mxCell id="fRf1mxBCHzGcTCpwJjoB-0" value="8. AI Customer Support: caterting customer requirements from webpages (mobile or laptop)" style="shape=note;whiteSpace=wrap;html=1;backgroundOutline=1;fontColor=#000000;darkOpacity=0.05;fillColor=#FFF9B2;strokeColor=none;fillStyle=solid;direction=west;gradientDirection=north;gradientColor=#FFF2A1;shadow=1;size=20;pointerEvents=1;" vertex="1" parent="WIyWlLk6GJQsqaUBKTNV-1">
          <mxGeometry x="500" y="250" width="210" height="60" as="geometry" />
        </mxCell>
        <mxCell id="fRf1mxBCHzGcTCpwJjoB-10" value="" style="whiteSpace=wrap;html=1;aspect=fixed;dashed=1;dashPattern=8 8;fillColor=none;strokeWidth=2;" vertex="1" parent="WIyWlLk6GJQsqaUBKTNV-1">
          <mxGeometry x="120" y="155" width="590" height="590" as="geometry" />
        </mxCell>
        <mxCell id="fRf1mxBCHzGcTCpwJjoB-28" style="edgeStyle=orthogonalEdgeStyle;rounded=0;orthogonalLoop=1;jettySize=auto;html=1;dashed=1;dashPattern=8 8;" edge="1" parent="WIyWlLk6GJQsqaUBKTNV-1" source="fRf1mxBCHzGcTCpwJjoB-13">
          <mxGeometry relative="1" as="geometry">
            <mxPoint x="100" y="310" as="targetPoint" />
          </mxGeometry>
        </mxCell>
        <mxCell id="fRf1mxBCHzGcTCpwJjoB-13" value="" style="rounded=1;whiteSpace=wrap;html=1;strokeWidth=2;fillWeight=4;hachureGap=8;hachureAngle=45;fillColor=#1ba1e2;sketch=1;" vertex="1" parent="WIyWlLk6GJQsqaUBKTNV-1">
          <mxGeometry x="40" y="860" width="780" height="300" as="geometry" />
        </mxCell>
        <mxCell id="fRf1mxBCHzGcTCpwJjoB-15" value="&lt;font style=&quot;font-size: 14px;&quot;&gt;&lt;b&gt;Webpage&lt;/b&gt;&lt;/font&gt;" style="text;html=1;align=center;verticalAlign=middle;resizable=0;points=[];autosize=1;strokeColor=none;fillColor=none;" vertex="1" parent="WIyWlLk6GJQsqaUBKTNV-1">
          <mxGeometry x="100" y="825" width="90" height="30" as="geometry" />
        </mxCell>
        <mxCell id="fRf1mxBCHzGcTCpwJjoB-16" value="Same as Webpage, &lt;br&gt;- (in different webpage layout)" style="rounded=1;whiteSpace=wrap;html=1;strokeWidth=2;fillWeight=4;hachureGap=8;hachureAngle=45;fillColor=#d5e8d4;sketch=1;strokeColor=#82b366;" vertex="1" parent="WIyWlLk6GJQsqaUBKTNV-1">
          <mxGeometry x="90" y="1210" width="140" height="270" as="geometry" />
        </mxCell>
        <mxCell id="fRf1mxBCHzGcTCpwJjoB-17" value="&lt;font style=&quot;font-size: 14px;&quot;&gt;&lt;b&gt;Mobile&lt;br&gt;&lt;/b&gt;&lt;/font&gt;" style="text;html=1;align=center;verticalAlign=middle;resizable=0;points=[];autosize=1;strokeColor=none;fillColor=none;" vertex="1" parent="WIyWlLk6GJQsqaUBKTNV-1">
          <mxGeometry x="110" y="1170" width="70" height="30" as="geometry" />
        </mxCell>
        <mxCell id="fRf1mxBCHzGcTCpwJjoB-18" value="" style="rounded=0;whiteSpace=wrap;html=1;fillColor=#fff2cc;strokeColor=#d6b656;" vertex="1" parent="WIyWlLk6GJQsqaUBKTNV-1">
          <mxGeometry x="120" y="1875" width="570" height="190" as="geometry" />
        </mxCell>
        <mxCell id="fRf1mxBCHzGcTCpwJjoB-19" value="" style="rounded=0;whiteSpace=wrap;html=1;fillColor=#fff2cc;strokeColor=#d6b656;" vertex="1" parent="WIyWlLk6GJQsqaUBKTNV-1">
          <mxGeometry x="108" y="1886" width="571" height="190" as="geometry" />
        </mxCell>
        <mxCell id="fRf1mxBCHzGcTCpwJjoB-24" value="" style="edgeStyle=orthogonalEdgeStyle;rounded=0;orthogonalLoop=1;jettySize=auto;html=1;" edge="1" parent="WIyWlLk6GJQsqaUBKTNV-1" target="fRf1mxBCHzGcTCpwJjoB-19">
          <mxGeometry relative="1" as="geometry">
            <mxPoint x="380.0769230769231" y="1812" as="sourcePoint" />
            <Array as="points">
              <mxPoint x="380" y="1875" />
              <mxPoint x="380" y="1875" />
            </Array>
          </mxGeometry>
        </mxCell>
        <mxCell id="fRf1mxBCHzGcTCpwJjoB-23" value="&lt;div style=&quot;text-align: left;&quot;&gt;&lt;b style=&quot;background-color: initial;&quot;&gt;Administrator Control&lt;/b&gt;&lt;/div&gt;&lt;div style=&quot;text-align: left;&quot;&gt;&lt;b&gt;&lt;br&gt;&lt;/b&gt;&lt;/div&gt;&lt;b&gt;&lt;div style=&quot;text-align: left;&quot;&gt;&lt;b style=&quot;background-color: initial;&quot;&gt;- have access to administration page for maintainance&lt;/b&gt;&lt;/div&gt;&lt;/b&gt;" style="text;html=1;align=center;verticalAlign=middle;resizable=0;points=[];autosize=1;strokeColor=none;fillColor=none;" vertex="1" parent="WIyWlLk6GJQsqaUBKTNV-1">
          <mxGeometry x="415.36" y="1762" width="330" height="60" as="geometry" />
        </mxCell>
        <mxCell id="fRf1mxBCHzGcTCpwJjoB-25" value="&lt;b&gt;9. Access Control&lt;/b&gt;" style="text;html=1;align=center;verticalAlign=middle;resizable=0;points=[];autosize=1;strokeColor=none;fillColor=none;" vertex="1" parent="WIyWlLk6GJQsqaUBKTNV-1">
          <mxGeometry x="325" y="1895" width="120" height="30" as="geometry" />
        </mxCell>
        <mxCell id="fRf1mxBCHzGcTCpwJjoB-30" value="" style="endArrow=none;dashed=1;html=1;dashPattern=1 3;strokeWidth=2;rounded=0;entryX=0;entryY=0.264;entryDx=0;entryDy=0;entryPerimeter=0;" edge="1" parent="WIyWlLk6GJQsqaUBKTNV-1" target="fRf1mxBCHzGcTCpwJjoB-10">
          <mxGeometry width="50" height="50" relative="1" as="geometry">
            <mxPoint x="100" y="310" as="sourcePoint" />
            <mxPoint x="430" y="520" as="targetPoint" />
          </mxGeometry>
        </mxCell>
        <mxCell id="fRf1mxBCHzGcTCpwJjoB-31" value="&lt;b&gt;Role&lt;/b&gt;&lt;br&gt;Account&lt;b&gt; &lt;/b&gt;Manager" style="text;html=1;align=center;verticalAlign=middle;resizable=0;points=[];autosize=1;strokeColor=none;fillColor=none;" vertex="1" parent="WIyWlLk6GJQsqaUBKTNV-1">
          <mxGeometry x="160" y="1901" width="120" height="40" as="geometry" />
        </mxCell>
        <mxCell id="fRf1mxBCHzGcTCpwJjoB-32" value="&lt;b&gt;Users&lt;/b&gt;&lt;br&gt;Full Accounts" style="text;html=1;align=center;verticalAlign=middle;resizable=0;points=[];autosize=1;strokeColor=none;fillColor=none;" vertex="1" parent="WIyWlLk6GJQsqaUBKTNV-1">
          <mxGeometry x="525" y="1910" width="90" height="40" as="geometry" />
        </mxCell>
        <mxCell id="fRf1mxBCHzGcTCpwJjoB-39" value="" style="sketch=0;outlineConnect=0;fontColor=#232F3E;gradientColor=none;fillColor=#B0084D;strokeColor=none;dashed=0;verticalLabelPosition=bottom;verticalAlign=top;align=center;html=1;fontSize=12;fontStyle=0;aspect=fixed;pointerEvents=1;shape=mxgraph.aws4.organizations_management_account2;" vertex="1" parent="WIyWlLk6GJQsqaUBKTNV-1">
          <mxGeometry x="140" y="1935" width="130" height="130" as="geometry" />
        </mxCell>
        <mxCell id="fRf1mxBCHzGcTCpwJjoB-35" value="1. access analytics&lt;br&gt;2. edit all onsites&lt;br&gt;3. view reviews&lt;br&gt;4. respond to reviews&lt;br&gt;" style="shape=ext;double=1;whiteSpace=wrap;html=1;aspect=fixed;align=left;fillColor=#fff2cc;strokeColor=#d6b656;" vertex="1" parent="WIyWlLk6GJQsqaUBKTNV-1">
          <mxGeometry x="179" y="1957" width="111" height="111" as="geometry" />
        </mxCell>
        <mxCell id="fRf1mxBCHzGcTCpwJjoB-36" value="" style="sketch=0;outlineConnect=0;fontColor=#232F3E;gradientColor=none;fillColor=#B0084D;strokeColor=none;dashed=0;verticalLabelPosition=bottom;verticalAlign=top;align=center;html=1;fontSize=12;fontStyle=0;aspect=fixed;pointerEvents=1;shape=mxgraph.aws4.organizations_account2;" vertex="1" parent="WIyWlLk6GJQsqaUBKTNV-1">
          <mxGeometry x="533" y="1959" width="90" height="90" as="geometry" />
        </mxCell>
        <mxCell id="fRf1mxBCHzGcTCpwJjoB-38" value="" style="sketch=0;outlineConnect=0;fontColor=#232F3E;gradientColor=none;fillColor=#B0084D;strokeColor=none;dashed=0;verticalLabelPosition=bottom;verticalAlign=top;align=center;html=1;fontSize=12;fontStyle=0;aspect=fixed;pointerEvents=1;shape=mxgraph.aws4.organizations_management_account;" vertex="1" parent="WIyWlLk6GJQsqaUBKTNV-1">
          <mxGeometry x="354.64" y="1758" width="60.72" height="64" as="geometry" />
        </mxCell>
        <mxCell id="fRf1mxBCHzGcTCpwJjoB-42" value="3. Registration Page" style="rounded=0;whiteSpace=wrap;html=1;fillColor=#dae8fc;strokeColor=#6c8ebf;" vertex="1" parent="WIyWlLk6GJQsqaUBKTNV-1">
          <mxGeometry x="63" y="900" width="122" height="220" as="geometry" />
        </mxCell>
        <mxCell id="fRf1mxBCHzGcTCpwJjoB-43" value="4. Product Listing Page&lt;br&gt;- (from account specfic/&lt;br&gt;browsing as guest without log in)" style="rounded=0;whiteSpace=wrap;html=1;fillColor=#dae8fc;strokeColor=#6c8ebf;" vertex="1" parent="WIyWlLk6GJQsqaUBKTNV-1">
          <mxGeometry x="206" y="900" width="122" height="220" as="geometry" />
        </mxCell>
        <mxCell id="fRf1mxBCHzGcTCpwJjoB-44" value="5. Shopping Cart (Account Specific)" style="rounded=0;whiteSpace=wrap;html=1;fillColor=#dae8fc;strokeColor=#6c8ebf;" vertex="1" parent="WIyWlLk6GJQsqaUBKTNV-1">
          <mxGeometry x="346" y="900" width="122" height="220" as="geometry" />
        </mxCell>
        <mxCell id="fRf1mxBCHzGcTCpwJjoB-45" value="6. Payment Service" style="rounded=0;whiteSpace=wrap;html=1;fillColor=#dae8fc;strokeColor=#6c8ebf;" vertex="1" parent="WIyWlLk6GJQsqaUBKTNV-1">
          <mxGeometry x="489" y="900" width="122" height="220" as="geometry" />
        </mxCell>
        <mxCell id="fRf1mxBCHzGcTCpwJjoB-46" value="7. Shipping Service" style="rounded=0;whiteSpace=wrap;html=1;fillColor=#dae8fc;strokeColor=#6c8ebf;" vertex="1" parent="WIyWlLk6GJQsqaUBKTNV-1">
          <mxGeometry x="626" y="900" width="122" height="220" as="geometry" />
        </mxCell>
        <mxCell id="fRf1mxBCHzGcTCpwJjoB-47" value="8. AI Customer Support window (can be listed at each page)" style="rounded=0;whiteSpace=wrap;html=1;fillColor=#dae8fc;strokeColor=#6c8ebf;" vertex="1" parent="WIyWlLk6GJQsqaUBKTNV-1">
          <mxGeometry x="703" y="860" width="124" height="80" as="geometry" />
        </mxCell>
        <mxCell id="fRf1mxBCHzGcTCpwJjoB-48" value="" style="shape=flexArrow;endArrow=classic;html=1;rounded=0;exitX=0.945;exitY=-0.022;exitDx=0;exitDy=0;exitPerimeter=0;" edge="1" parent="WIyWlLk6GJQsqaUBKTNV-1" source="fRf1mxBCHzGcTCpwJjoB-13">
          <mxGeometry width="50" height="50" relative="1" as="geometry">
            <mxPoint x="440" y="950" as="sourcePoint" />
            <mxPoint x="720" y="760" as="targetPoint" />
          </mxGeometry>
        </mxCell>
        <mxCell id="fRf1mxBCHzGcTCpwJjoB-49" value="" style="shape=flexArrow;endArrow=classic;html=1;rounded=0;exitX=0.945;exitY=-0.022;exitDx=0;exitDy=0;exitPerimeter=0;" edge="1" parent="WIyWlLk6GJQsqaUBKTNV-1">
          <mxGeometry width="50" height="50" relative="1" as="geometry">
            <mxPoint x="173.5" y="1120" as="sourcePoint" />
            <mxPoint x="340" y="1220" as="targetPoint" />
          </mxGeometry>
        </mxCell>
        <mxCell id="fRf1mxBCHzGcTCpwJjoB-51" value="Customer Profile Database" style="text;html=1;align=center;verticalAlign=middle;resizable=0;points=[];autosize=1;strokeColor=none;fillColor=none;" vertex="1" parent="WIyWlLk6GJQsqaUBKTNV-1">
          <mxGeometry x="430" y="1430" width="170" height="30" as="geometry" />
        </mxCell>
        <mxCell id="fRf1mxBCHzGcTCpwJjoB-52" value="1. Each time customer register an account, information added to customer profile database&lt;br&gt;&lt;div style=&quot;&quot;&gt;&lt;span style=&quot;background-color: initial;&quot;&gt;2.&amp;nbsp;&lt;/span&gt;&lt;/div&gt;" style="text;html=1;align=left;verticalAlign=middle;resizable=0;points=[];autosize=1;strokeColor=none;fillColor=none;" vertex="1" parent="WIyWlLk6GJQsqaUBKTNV-1">
          <mxGeometry x="63" y="2115" width="510" height="40" as="geometry" />
        </mxCell>
        <mxCell id="fRf1mxBCHzGcTCpwJjoB-53" value="" style="endArrow=classic;html=1;rounded=0;" edge="1" parent="WIyWlLk6GJQsqaUBKTNV-1">
          <mxGeometry width="50" height="50" relative="1" as="geometry">
            <mxPoint x="580" y="1415" as="sourcePoint" />
            <mxPoint x="620" y="1370" as="targetPoint" />
          </mxGeometry>
        </mxCell>
        <mxCell id="fRf1mxBCHzGcTCpwJjoB-57" value="Amazon SageMaker" style="sketch=0;outlineConnect=0;fontColor=#232F3E;gradientColor=none;strokeColor=#ffffff;fillColor=#232F3E;dashed=0;verticalLabelPosition=middle;verticalAlign=bottom;align=center;html=1;whiteSpace=wrap;fontSize=10;fontStyle=1;spacing=3;shape=mxgraph.aws4.productIcon;prIcon=mxgraph.aws4.sagemaker;" vertex="1" parent="WIyWlLk6GJQsqaUBKTNV-1">
          <mxGeometry x="623" y="1280" width="80" height="110" as="geometry" />
        </mxCell>
        <mxCell id="fRf1mxBCHzGcTCpwJjoB-58" value="Machine Learning for product&lt;br&gt;recommendation&lt;br&gt;- also update 4.product listing page&amp;nbsp;&lt;br&gt;&amp;nbsp; according to this section" style="text;html=1;align=left;verticalAlign=middle;resizable=0;points=[];autosize=1;strokeColor=none;fillColor=none;" vertex="1" parent="WIyWlLk6GJQsqaUBKTNV-1">
          <mxGeometry x="720" y="1285" width="210" height="70" as="geometry" />
        </mxCell>
        <mxCell id="fRf1mxBCHzGcTCpwJjoB-59" value="" style="endArrow=classic;html=1;rounded=0;exitX=0.25;exitY=0;exitDx=0;exitDy=0;" edge="1" parent="WIyWlLk6GJQsqaUBKTNV-1" source="fRf1mxBCHzGcTCpwJjoB-55">
          <mxGeometry width="50" height="50" relative="1" as="geometry">
            <mxPoint x="590" y="1444" as="sourcePoint" />
            <mxPoint x="430" y="1380" as="targetPoint" />
          </mxGeometry>
        </mxCell>
        <mxCell id="fRf1mxBCHzGcTCpwJjoB-61" value="" style="shape=image;html=1;verticalAlign=top;verticalLabelPosition=bottom;labelBackgroundColor=#ffffff;imageAspect=0;aspect=fixed;image=https://cdn1.iconfinder.com/data/icons/seo-and-web-development-6/32/development_website_favorite_site_star-128.png" vertex="1" parent="WIyWlLk6GJQsqaUBKTNV-1">
          <mxGeometry x="362" y="1322" width="68" height="68" as="geometry" />
        </mxCell>
        <mxCell id="fRf1mxBCHzGcTCpwJjoB-62" value="Each user&#39;s own page / shoppiing cart" style="text;html=1;align=center;verticalAlign=middle;resizable=0;points=[];autosize=1;strokeColor=none;fillColor=none;" vertex="1" parent="WIyWlLk6GJQsqaUBKTNV-1">
          <mxGeometry x="315" y="1292" width="230" height="30" as="geometry" />
        </mxCell>
        <mxCell id="fRf1mxBCHzGcTCpwJjoB-63" value="" style="endArrow=classic;html=1;rounded=0;exitX=0;exitY=1;exitDx=0;exitDy=0;" edge="1" parent="WIyWlLk6GJQsqaUBKTNV-1" source="fRf1mxBCHzGcTCpwJjoB-61">
          <mxGeometry width="50" height="50" relative="1" as="geometry">
            <mxPoint x="481" y="1425" as="sourcePoint" />
            <mxPoint x="340" y="1540" as="targetPoint" />
          </mxGeometry>
        </mxCell>
        <mxCell id="fRf1mxBCHzGcTCpwJjoB-67" value="" style="edgeStyle=orthogonalEdgeStyle;rounded=0;orthogonalLoop=1;jettySize=auto;html=1;" edge="1" parent="WIyWlLk6GJQsqaUBKTNV-1" source="fRf1mxBCHzGcTCpwJjoB-64" target="fRf1mxBCHzGcTCpwJjoB-66">
          <mxGeometry relative="1" as="geometry" />
        </mxCell>
        <mxCell id="fRf1mxBCHzGcTCpwJjoB-64" value="user make orders / payment processed" style="rounded=1;whiteSpace=wrap;html=1;" vertex="1" parent="WIyWlLk6GJQsqaUBKTNV-1">
          <mxGeometry x="280" y="1550" width="120" height="60" as="geometry" />
        </mxCell>
        <mxCell id="fRf1mxBCHzGcTCpwJjoB-72" style="edgeStyle=orthogonalEdgeStyle;rounded=0;orthogonalLoop=1;jettySize=auto;html=1;entryX=0;entryY=0.5;entryDx=0;entryDy=0;" edge="1" parent="WIyWlLk6GJQsqaUBKTNV-1" source="fRf1mxBCHzGcTCpwJjoB-66" target="fRf1mxBCHzGcTCpwJjoB-69">
          <mxGeometry relative="1" as="geometry" />
        </mxCell>
        <mxCell id="fRf1mxBCHzGcTCpwJjoB-66" value="Shipping service" style="whiteSpace=wrap;html=1;rounded=1;" vertex="1" parent="WIyWlLk6GJQsqaUBKTNV-1">
          <mxGeometry x="491" y="1550" width="120" height="60" as="geometry" />
        </mxCell>
        <mxCell id="fRf1mxBCHzGcTCpwJjoB-68" value="&lt;b&gt;Order Data Store&lt;/b&gt;" style="rounded=0;whiteSpace=wrap;html=1;fillColor=#f5f5f5;fontColor=#333333;strokeColor=#666666;" vertex="1" parent="WIyWlLk6GJQsqaUBKTNV-1">
          <mxGeometry x="460" y="1660" width="185" height="65" as="geometry" />
        </mxCell>
        <mxCell id="fRf1mxBCHzGcTCpwJjoB-69" value="Physical Inventory" style="whiteSpace=wrap;html=1;rounded=1;" vertex="1" parent="WIyWlLk6GJQsqaUBKTNV-1">
          <mxGeometry x="690" y="1550" width="120" height="60" as="geometry" />
        </mxCell>
        <mxCell id="fRf1mxBCHzGcTCpwJjoB-73" value="" style="endArrow=none;dashed=1;html=1;dashPattern=1 3;strokeWidth=2;rounded=0;entryX=0.5;entryY=0;entryDx=0;entryDy=0;exitX=0.5;exitY=1;exitDx=0;exitDy=0;" edge="1" parent="WIyWlLk6GJQsqaUBKTNV-1" source="fRf1mxBCHzGcTCpwJjoB-66" target="fRf1mxBCHzGcTCpwJjoB-68">
          <mxGeometry width="50" height="50" relative="1" as="geometry">
            <mxPoint x="450" y="1840" as="sourcePoint" />
            <mxPoint x="500" y="1790" as="targetPoint" />
          </mxGeometry>
        </mxCell>
        <mxCell id="fRf1mxBCHzGcTCpwJjoB-75" value="" style="endArrow=none;dashed=1;html=1;dashPattern=1 3;strokeWidth=2;rounded=0;entryX=0.75;entryY=0;entryDx=0;entryDy=0;exitX=0.25;exitY=1;exitDx=0;exitDy=0;" edge="1" parent="WIyWlLk6GJQsqaUBKTNV-1" source="fRf1mxBCHzGcTCpwJjoB-69" target="fRf1mxBCHzGcTCpwJjoB-68">
          <mxGeometry width="50" height="50" relative="1" as="geometry">
            <mxPoint x="561" y="1620" as="sourcePoint" />
            <mxPoint x="563" y="1670" as="targetPoint" />
          </mxGeometry>
        </mxCell>
        <mxCell id="fRf1mxBCHzGcTCpwJjoB-76" value="" style="endArrow=none;dashed=1;html=1;dashPattern=1 3;strokeWidth=2;rounded=0;entryX=0.25;entryY=0;entryDx=0;entryDy=0;exitX=0.5;exitY=1;exitDx=0;exitDy=0;" edge="1" parent="WIyWlLk6GJQsqaUBKTNV-1" source="fRf1mxBCHzGcTCpwJjoB-64" target="fRf1mxBCHzGcTCpwJjoB-68">
          <mxGeometry width="50" height="50" relative="1" as="geometry">
            <mxPoint x="730" y="1620" as="sourcePoint" />
            <mxPoint x="609" y="1670" as="targetPoint" />
          </mxGeometry>
        </mxCell>
      </root>
    </mxGraphModel>
  </diagram>
</mxfile>
